<svg xmlns="http://www.w3.org/2000/svg" xmlns:xlink="http://www.w3.org/1999/xlink" width="1341" zoomAndPan="magnify" viewBox="0 0 1006.07996 1290" height="1719" preserveAspectRatio="xMidYMid meet" version="1.0"><defs><g/><clipPath id="id1"><path d="M 0 0.0898438 L 1005.082031 0.0898438 L 1005.082031 1288.910156 L 0 1288.910156 Z M 0 0.0898438 " clip-rule="nonzero"/></clipPath><clipPath id="id2"><path d="M 0 0.0898438 L 1005.082031 0.0898438 L 1005.082031 1288.269531 L 0 1288.269531 Z M 0 0.0898438 " clip-rule="nonzero"/></clipPath><clipPath id="id3"><path d="M 382 465.484375 L 454 465.484375 L 454 539 L 382 539 Z M 382 465.484375 " clip-rule="nonzero"/></clipPath><clipPath id="id4"><path d="M 538 465.484375 L 610 465.484375 L 610 539 L 538 539 Z M 538 465.484375 " clip-rule="nonzero"/></clipPath><clipPath id="id5"><path d="M 410 484 L 583 484 L 583 622.75 L 410 622.75 Z M 410 484 " clip-rule="nonzero"/></clipPath><clipPath id="id6"><path d="M 588.863281 396.132812 L 647.746094 396.132812 L 647.746094 452 L 588.863281 452 Z M 588.863281 396.132812 " clip-rule="nonzero"/></clipPath></defs><g clip-path="url(#id1)"><path fill="#ffffff" d="M 0 0.0898438 L 1005.082031 0.0898438 L 1005.082031 1295.761719 L 0 1295.761719 Z M 0 0.0898438 " fill-opacity="1" fill-rule="nonzero"/></g><g clip-path="url(#id2)"><path fill="#ffffff" d="M 0 0.0898438 L 1005.082031 0.0898438 L 1005.082031 1288.269531 L 0 1288.269531 Z M 0 0.0898438 " fill-opacity="1" fill-rule="nonzero"/><path fill="#ffffff" d="M 0 0.0898438 L 1005.082031 0.0898438 L 1005.082031 1288.269531 L 0 1288.269531 Z M 0 0.0898438 " fill-opacity="1" fill-rule="nonzero"/></g><g fill="#3d3d3d" fill-opacity="1"><g transform="translate(251.019728, 770.743497)"><g><path d="M 13.8125 -32.28125 L 13.8125 1.6875 L 4.375 1.6875 L 4.375 -48.859375 L 15.5625 -48.859375 L 16.03125 -47.984375 L 33.703125 -14.6875 L 33.703125 -48.859375 L 43.125 -48.859375 L 43.125 1.6875 L 32.078125 1.6875 L 31.609375 0.8125 Z M 13.8125 -32.28125 "/></g></g></g><g fill="#3d3d3d" fill-opacity="1"><g transform="translate(298.531896, 770.743497)"><g><path d="M 29.71875 -17.515625 C 29.71875 -19.085938 29.472656 -20.570312 28.984375 -21.96875 C 28.484375 -23.3125 27.804688 -24.503906 26.953125 -25.546875 C 26.640625 -25.859375 26.328125 -26.160156 26.015625 -26.453125 C 25.703125 -26.742188 25.363281 -27.007812 25 -27.25 C 24.644531 -27.5 24.265625 -27.71875 23.859375 -27.90625 C 23.316406 -28.21875 22.726562 -28.441406 22.09375 -28.578125 C 21.46875 -28.710938 20.820312 -28.78125 20.15625 -28.78125 C 17.144531 -28.78125 14.804688 -27.8125 13.140625 -25.875 C 11.429688 -23.851562 10.578125 -21.113281 10.578125 -17.65625 C 10.578125 -16.082031 10.828125 -14.597656 11.328125 -13.203125 C 11.410156 -12.984375 11.492188 -12.757812 11.578125 -12.53125 C 11.671875 -12.3125 11.773438 -12.085938 11.890625 -11.859375 C 12.003906 -11.640625 12.117188 -11.425781 12.234375 -11.21875 C 12.347656 -11.019531 12.457031 -10.828125 12.5625 -10.640625 C 12.675781 -10.460938 12.800781 -10.269531 12.9375 -10.0625 C 13.070312 -9.863281 13.226562 -9.695312 13.40625 -9.5625 C 13.675781 -9.207031 13.96875 -8.882812 14.28125 -8.59375 C 14.601562 -8.300781 14.941406 -8.03125 15.296875 -7.78125 C 15.660156 -7.53125 16.039062 -7.316406 16.4375 -7.140625 C 16.976562 -6.828125 17.5625 -6.601562 18.1875 -6.46875 C 18.820312 -6.332031 19.476562 -6.265625 20.15625 -6.265625 C 21.675781 -6.265625 23.019531 -6.535156 24.1875 -7.078125 C 24.769531 -7.347656 25.296875 -7.660156 25.765625 -8.015625 C 26.242188 -8.378906 26.6875 -8.804688 27.09375 -9.296875 C 27.945312 -10.242188 28.597656 -11.410156 29.046875 -12.796875 C 29.492188 -14.191406 29.71875 -15.765625 29.71875 -17.515625 Z M 1.015625 -17.515625 C 1.015625 -20.578125 1.507812 -23.34375 2.5 -25.8125 C 3.476562 -28.28125 4.820312 -30.378906 6.53125 -32.109375 C 8.238281 -33.835938 10.265625 -35.175781 12.609375 -36.125 C 14.941406 -37.0625 17.457031 -37.53125 20.15625 -37.53125 C 20.820312 -37.53125 21.46875 -37.492188 22.09375 -37.421875 C 22.726562 -37.359375 23.359375 -37.269531 23.984375 -37.15625 C 24.617188 -37.050781 25.238281 -36.90625 25.84375 -36.71875 C 26.445312 -36.539062 27.039062 -36.34375 27.625 -36.125 C 28.789062 -35.675781 29.878906 -35.113281 30.890625 -34.4375 C 31.910156 -33.757812 32.867188 -32.992188 33.765625 -32.140625 C 35.472656 -30.390625 36.820312 -28.28125 37.8125 -25.8125 C 38.789062 -23.382812 39.28125 -20.664062 39.28125 -17.65625 C 39.28125 -14.644531 38.8125 -11.90625 37.875 -9.4375 C 36.882812 -6.96875 35.535156 -4.851562 33.828125 -3.09375 C 32.972656 -2.195312 32.03125 -1.398438 31 -0.703125 C 29.96875 -0.00390625 28.867188 0.585938 27.703125 1.078125 C 25.359375 2.023438 22.84375 2.5 20.15625 2.5 C 18.800781 2.5 17.484375 2.375 16.203125 2.125 C 14.921875 1.875 13.695312 1.503906 12.53125 1.015625 C 10.195312 0.0234375 8.175781 -1.351562 6.46875 -3.125 C 4.757812 -4.90625 3.410156 -7.03125 2.421875 -9.5 C 1.484375 -11.925781 1.015625 -14.597656 1.015625 -17.515625 Z M 1.015625 -17.515625 "/></g></g></g><g fill="#3d3d3d" fill-opacity="1"><g transform="translate(338.833002, 770.743497)"><g/></g></g><g fill="#3d3d3d" fill-opacity="1"><g transform="translate(359.050951, 770.743497)"><g><path d="M 4.375 0 L 4.375 -48.859375 L 14.15625 -48.859375 L 14.15625 1.6875 L 4.375 1.6875 Z M 4.375 0 "/></g></g></g><g fill="#3d3d3d" fill-opacity="1"><g transform="translate(377.584066, 770.743497)"><g><path d="M 12.9375 -33.703125 C 13.300781 -34.015625 13.648438 -34.300781 13.984375 -34.5625 C 14.316406 -34.832031 14.6875 -35.082031 15.09375 -35.3125 C 15.632812 -35.675781 16.195312 -36.003906 16.78125 -36.296875 C 17.363281 -36.585938 17.976562 -36.820312 18.625 -37 C 19.28125 -37.175781 19.929688 -37.304688 20.578125 -37.390625 C 21.234375 -37.484375 21.921875 -37.53125 22.640625 -37.53125 C 25.785156 -37.53125 28.390625 -36.742188 30.453125 -35.171875 C 31.710938 -34.234375 32.75 -33.066406 33.5625 -31.671875 C 34.6875 -32.929688 35.875 -34.054688 37.125 -35.046875 C 37.582031 -35.359375 38.054688 -35.648438 38.546875 -35.921875 C 39.035156 -36.191406 39.550781 -36.425781 40.09375 -36.625 C 40.632812 -36.832031 41.1875 -37 41.75 -37.125 C 42.3125 -37.257812 42.882812 -37.359375 43.46875 -37.421875 C 44.050781 -37.492188 44.65625 -37.53125 45.28125 -37.53125 C 45.550781 -37.53125 45.8125 -37.53125 46.0625 -37.53125 C 46.3125 -37.53125 46.554688 -37.519531 46.796875 -37.5 C 47.046875 -37.476562 47.296875 -37.441406 47.546875 -37.390625 C 47.796875 -37.347656 48.03125 -37.304688 48.25 -37.265625 C 48.476562 -37.222656 48.703125 -37.175781 48.921875 -37.125 C 49.148438 -37.082031 49.375 -37.023438 49.59375 -36.953125 C 49.820312 -36.890625 50.046875 -36.8125 50.265625 -36.71875 C 50.492188 -36.632812 50.722656 -36.546875 50.953125 -36.453125 C 51.347656 -36.273438 51.738281 -36.070312 52.125 -35.84375 C 52.507812 -35.625 52.867188 -35.378906 53.203125 -35.109375 C 53.535156 -34.835938 53.859375 -34.554688 54.171875 -34.265625 C 54.492188 -33.972656 54.789062 -33.648438 55.0625 -33.296875 C 56.1875 -31.992188 56.992188 -30.441406 57.484375 -28.640625 C 58.023438 -26.890625 58.296875 -24.957031 58.296875 -22.84375 L 58.296875 1.6875 L 48.859375 1.6875 L 48.859375 -22.375 C 48.859375 -24.4375 48.410156 -26.078125 47.515625 -27.296875 C 46.703125 -28.328125 45.597656 -28.84375 44.203125 -28.84375 C 43.398438 -28.84375 42.640625 -28.6875 41.921875 -28.375 C 41.109375 -28.007812 40.34375 -27.535156 39.625 -26.953125 C 38.863281 -26.328125 38.125 -25.609375 37.40625 -24.796875 C 37.132812 -24.441406 36.835938 -24.0625 36.515625 -23.65625 C 36.203125 -23.25 35.9375 -22.867188 35.71875 -22.515625 L 35.71875 1.6875 L 26.28125 1.6875 L 26.28125 -22.375 C 26.28125 -24.4375 25.832031 -26.078125 24.9375 -27.296875 C 24.125 -28.328125 23.019531 -28.84375 21.625 -28.84375 C 20.863281 -28.84375 20.101562 -28.6875 19.34375 -28.375 C 18.976562 -28.238281 18.59375 -28.054688 18.1875 -27.828125 C 17.789062 -27.609375 17.410156 -27.34375 17.046875 -27.03125 C 16.910156 -26.9375 16.773438 -26.832031 16.640625 -26.71875 C 16.503906 -26.601562 16.378906 -26.488281 16.265625 -26.375 C 16.160156 -26.269531 16.039062 -26.160156 15.90625 -26.046875 C 15.769531 -25.929688 15.644531 -25.816406 15.53125 -25.703125 C 15.414062 -25.597656 15.300781 -25.476562 15.1875 -25.34375 C 15.082031 -25.207031 14.960938 -25.070312 14.828125 -24.9375 C 14.554688 -24.570312 14.265625 -24.195312 13.953125 -23.8125 C 13.640625 -23.4375 13.367188 -23.066406 13.140625 -22.703125 L 13.140625 1.6875 L 3.703125 1.6875 L 3.703125 -36.734375 L 12.9375 -36.734375 Z M 12.9375 -33.703125 "/></g></g></g><g fill="#3d3d3d" fill-opacity="1"><g transform="translate(439.248796, 770.743497)"><g><path d="M 1.34375 -17.3125 C 1.34375 -20.101562 1.769531 -22.734375 2.625 -25.203125 C 3.519531 -27.671875 4.78125 -29.804688 6.40625 -31.609375 C 8.019531 -33.453125 9.960938 -34.898438 12.234375 -35.953125 C 14.503906 -37.003906 16.960938 -37.53125 19.609375 -37.53125 C 21.859375 -37.53125 23.90625 -37.148438 25.75 -36.390625 C 26.414062 -36.078125 27.066406 -35.738281 27.703125 -35.375 L 27.703125 -36.734375 L 36.59375 -36.734375 L 36.59375 -8.484375 C 36.59375 -7.410156 36.75 -6.785156 37.0625 -6.609375 C 37.601562 -6.242188 38.210938 -6.0625 38.890625 -6.0625 L 41.109375 -6.0625 L 40.5 -3.90625 L 39.21875 0.8125 L 38.890625 2.015625 L 37.609375 2.015625 C 33.691406 2.015625 30.925781 0.738281 29.3125 -1.8125 C 29.226562 -1.726562 29.160156 -1.664062 29.109375 -1.625 C 28.703125 -1.21875 28.273438 -0.832031 27.828125 -0.46875 C 27.378906 -0.113281 26.910156 0.195312 26.421875 0.46875 C 25.378906 1.101562 24.21875 1.597656 22.9375 1.953125 C 21.664062 2.316406 20.285156 2.5 18.796875 2.5 C 17.585938 2.5 16.410156 2.375 15.265625 2.125 C 14.117188 1.875 13.003906 1.523438 11.921875 1.078125 C 9.816406 0.128906 7.976562 -1.21875 6.40625 -2.96875 C 4.832031 -4.71875 3.597656 -6.804688 2.703125 -9.234375 C 1.796875 -11.609375 1.34375 -14.300781 1.34375 -17.3125 Z M 20.15625 -6.265625 C 21.59375 -6.304688 22.9375 -6.644531 24.1875 -7.28125 C 24.59375 -7.5 24.972656 -7.734375 25.328125 -7.984375 C 25.691406 -8.234375 26.019531 -8.492188 26.3125 -8.765625 C 26.601562 -9.035156 26.882812 -9.300781 27.15625 -9.5625 L 27.15625 -26.890625 C 26.257812 -27.429688 25.296875 -27.878906 24.265625 -28.234375 C 23.003906 -28.679688 21.65625 -28.90625 20.21875 -28.90625 C 18.875 -28.90625 17.640625 -28.644531 16.515625 -28.125 C 15.390625 -27.613281 14.421875 -26.863281 13.609375 -25.875 C 12.753906 -24.9375 12.101562 -23.75 11.65625 -22.3125 C 11.164062 -20.875 10.921875 -19.273438 10.921875 -17.515625 C 10.921875 -15.804688 11.164062 -14.257812 11.65625 -12.875 C 11.882812 -12.15625 12.164062 -11.503906 12.5 -10.921875 C 12.832031 -10.335938 13.203125 -9.796875 13.609375 -9.296875 C 14.015625 -8.804688 14.460938 -8.367188 14.953125 -7.984375 C 15.453125 -7.597656 15.972656 -7.296875 16.515625 -7.078125 C 17.046875 -6.804688 17.613281 -6.601562 18.21875 -6.46875 C 18.832031 -6.332031 19.476562 -6.265625 20.15625 -6.265625 Z M 20.15625 -6.265625 "/></g></g></g><g fill="#3d3d3d" fill-opacity="1"><g transform="translate(480.83037, 770.743497)"><g><path d="M 19.28125 -37.53125 C 20.394531 -37.53125 21.457031 -37.441406 22.46875 -37.265625 C 23.476562 -37.085938 24.4375 -36.796875 25.34375 -36.390625 C 25.96875 -36.117188 26.570312 -35.828125 27.15625 -35.515625 L 27.15625 -36.734375 L 36.046875 -36.734375 L 36.046875 -0.8125 C 36.046875 2.289062 35.625 4.988281 34.78125 7.28125 C 34.375 8.40625 33.863281 9.445312 33.25 10.40625 C 32.644531 11.375 31.9375 12.226562 31.125 12.96875 C 30.320312 13.707031 29.4375 14.359375 28.46875 14.921875 C 27.507812 15.484375 26.488281 15.945312 25.40625 16.3125 C 24.320312 16.625 23.1875 16.867188 22 17.046875 C 20.8125 17.222656 19.566406 17.3125 18.265625 17.3125 C 16.015625 17.3125 13.859375 17.046875 11.796875 16.515625 C 11.078125 16.328125 10.390625 16.117188 9.734375 15.890625 C 9.085938 15.671875 8.457031 15.40625 7.84375 15.09375 C 7.238281 14.78125 6.644531 14.441406 6.0625 14.078125 L 4.921875 13.34375 L 5.453125 12 L 7.6875 6.734375 L 8.5625 4.71875 L 10.3125 6.0625 C 11.25 6.820312 12.347656 7.453125 13.609375 7.953125 C 14.867188 8.441406 16.421875 8.6875 18.265625 8.6875 C 18.753906 8.6875 19.210938 8.664062 19.640625 8.625 C 20.066406 8.582031 20.484375 8.523438 20.890625 8.453125 C 21.296875 8.390625 21.664062 8.300781 22 8.1875 C 22.34375 8.070312 22.671875 7.9375 22.984375 7.78125 C 23.296875 7.625 23.585938 7.441406 23.859375 7.234375 C 24.128906 7.035156 24.398438 6.847656 24.671875 6.671875 C 25.335938 5.992188 25.863281 5.09375 26.25 3.96875 C 26.632812 2.851562 26.828125 1.460938 26.828125 -0.203125 L 26.828125 -0.8125 C 26.367188 -0.539062 25.914062 -0.269531 25.46875 0 C 23.539062 1.125 21.25 1.6875 18.59375 1.6875 C 17.875 1.6875 17.144531 1.640625 16.40625 1.546875 C 15.664062 1.460938 14.945312 1.316406 14.25 1.109375 C 13.550781 0.910156 12.84375 0.675781 12.125 0.40625 C 10.0625 -0.488281 8.222656 -1.769531 6.609375 -3.4375 C 5.796875 -4.289062 5.070312 -5.222656 4.4375 -6.234375 C 3.8125 -7.242188 3.253906 -8.332031 2.765625 -9.5 C 1.816406 -11.882812 1.34375 -14.601562 1.34375 -17.65625 C 1.34375 -20.488281 1.816406 -23.09375 2.765625 -25.46875 C 3.078125 -26.28125 3.421875 -27.054688 3.796875 -27.796875 C 4.179688 -28.535156 4.597656 -29.242188 5.046875 -29.921875 C 5.503906 -30.597656 6 -31.226562 6.53125 -31.8125 C 8.15625 -33.601562 10.046875 -34.992188 12.203125 -35.984375 C 14.398438 -37.015625 16.757812 -37.53125 19.28125 -37.53125 Z M 19.953125 -7.078125 C 21.429688 -7.078125 22.773438 -7.414062 23.984375 -8.09375 C 25.023438 -8.675781 25.90625 -9.347656 26.625 -10.109375 L 26.625 -26.828125 C 25.851562 -27.316406 25 -27.765625 24.0625 -28.171875 C 22.9375 -28.660156 21.539062 -28.90625 19.875 -28.90625 C 19.289062 -28.90625 18.71875 -28.847656 18.15625 -28.734375 C 17.59375 -28.628906 17.066406 -28.460938 16.578125 -28.234375 C 15.492188 -27.742188 14.53125 -27.046875 13.6875 -26.140625 C 12.875 -25.242188 12.195312 -24.125 11.65625 -22.78125 C 11.164062 -21.382812 10.921875 -19.789062 10.921875 -18 C 10.921875 -17.144531 10.988281 -16.320312 11.125 -15.53125 C 11.257812 -14.75 11.4375 -14.019531 11.65625 -13.34375 C 12.195312 -12 12.894531 -10.851562 13.75 -9.90625 C 13.925781 -9.675781 14.125 -9.460938 14.34375 -9.265625 C 14.570312 -9.066406 14.8125 -8.875 15.0625 -8.6875 C 15.3125 -8.507812 15.554688 -8.34375 15.796875 -8.1875 C 16.046875 -8.03125 16.304688 -7.90625 16.578125 -7.8125 C 17.117188 -7.539062 17.671875 -7.347656 18.234375 -7.234375 C 18.796875 -7.128906 19.367188 -7.078125 19.953125 -7.078125 Z M 19.953125 -7.078125 "/></g></g></g><g fill="#3d3d3d" fill-opacity="1"><g transform="translate(520.255351, 770.743497)"><g><path d="M 11.25 -13.34375 C 11.75 -11.363281 12.601562 -9.769531 13.8125 -8.5625 C 15.382812 -7.03125 17.5 -6.265625 20.15625 -6.265625 C 20.78125 -6.265625 21.382812 -6.285156 21.96875 -6.328125 C 22.550781 -6.378906 23.113281 -6.445312 23.65625 -6.53125 C 24.195312 -6.625 24.710938 -6.738281 25.203125 -6.875 C 25.703125 -7.007812 26.195312 -7.15625 26.6875 -7.3125 C 27.175781 -7.46875 27.65625 -7.632812 28.125 -7.8125 C 28.601562 -8 29.085938 -8.203125 29.578125 -8.421875 L 31.34375 -9.234375 L 31.875 -7.34375 L 33.296875 -2.15625 L 33.703125 -0.734375 L 32.421875 -0.140625 C 30.660156 0.671875 28.703125 1.300781 26.546875 1.75 C 25.472656 2.019531 24.335938 2.210938 23.140625 2.328125 C 21.953125 2.441406 20.707031 2.5 19.40625 2.5 C 16.664062 2.5 14.171875 2.046875 11.921875 1.140625 C 9.679688 0.203125 7.773438 -1.140625 6.203125 -2.890625 C 4.628906 -4.597656 3.414062 -6.710938 2.5625 -9.234375 C 1.75 -11.660156 1.34375 -14.421875 1.34375 -17.515625 C 1.34375 -20.304688 1.75 -22.914062 2.5625 -25.34375 C 3.007812 -26.550781 3.523438 -27.691406 4.109375 -28.765625 C 4.691406 -29.847656 5.363281 -30.835938 6.125 -31.734375 C 7.65625 -33.535156 9.5 -34.953125 11.65625 -35.984375 C 13.8125 -37.015625 16.21875 -37.53125 18.875 -37.53125 C 19.769531 -37.53125 20.628906 -37.472656 21.453125 -37.359375 C 22.285156 -37.253906 23.09375 -37.097656 23.875 -36.890625 C 24.664062 -36.691406 25.421875 -36.4375 26.140625 -36.125 C 27.222656 -35.625 28.203125 -35.046875 29.078125 -34.390625 C 29.953125 -33.742188 30.75 -32.992188 31.46875 -32.140625 C 32.863281 -30.484375 33.921875 -28.578125 34.640625 -26.421875 C 34.953125 -25.335938 35.195312 -24.222656 35.375 -23.078125 C 35.5625 -21.929688 35.65625 -20.773438 35.65625 -19.609375 C 35.65625 -19.296875 35.65625 -18.984375 35.65625 -18.671875 C 35.65625 -18.359375 35.640625 -18.03125 35.609375 -17.6875 C 35.585938 -17.351562 35.578125 -17.023438 35.578125 -16.703125 C 35.578125 -16.390625 35.566406 -16.085938 35.546875 -15.796875 C 35.523438 -15.503906 35.492188 -15.203125 35.453125 -14.890625 L 35.3125 -13.34375 Z M 18.734375 -28.90625 C 16.578125 -28.90625 14.828125 -28.1875 13.484375 -26.75 C 12.941406 -26.164062 12.46875 -25.445312 12.0625 -24.59375 C 11.65625 -23.738281 11.34375 -22.75 11.125 -21.625 L 26.625 -21.625 C 26.394531 -23.78125 25.71875 -25.46875 24.59375 -26.6875 C 23.207031 -28.164062 21.253906 -28.90625 18.734375 -28.90625 Z M 18.734375 -28.90625 "/></g></g></g><g fill="#3d3d3d" fill-opacity="1"><g transform="translate(556.917236, 770.743497)"><g/></g></g><g fill="#3d3d3d" fill-opacity="1"><g transform="translate(577.135186, 770.743497)"><g><path d="M 24.1875 -41.84375 C 23.332031 -42.300781 22.390625 -42.726562 21.359375 -43.125 C 21.140625 -43.175781 20.914062 -43.234375 20.6875 -43.296875 C 20.46875 -43.367188 20.234375 -43.425781 19.984375 -43.46875 C 19.734375 -43.507812 19.472656 -43.539062 19.203125 -43.5625 C 18.929688 -43.59375 18.660156 -43.609375 18.390625 -43.609375 C 18.210938 -43.609375 18.046875 -43.609375 17.890625 -43.609375 C 17.734375 -43.609375 17.585938 -43.59375 17.453125 -43.5625 C 17.316406 -43.539062 17.179688 -43.507812 17.046875 -43.46875 C 16.910156 -43.425781 16.773438 -43.378906 16.640625 -43.328125 C 16.503906 -43.285156 16.378906 -43.238281 16.265625 -43.1875 C 16.160156 -43.144531 16.050781 -43.085938 15.9375 -43.015625 C 15.820312 -42.953125 15.71875 -42.882812 15.625 -42.8125 C 15.539062 -42.75 15.453125 -42.671875 15.359375 -42.578125 C 15.273438 -42.492188 15.1875 -42.410156 15.09375 -42.328125 C 14.6875 -41.921875 14.367188 -41.390625 14.140625 -40.734375 C 13.921875 -40.085938 13.8125 -39.269531 13.8125 -38.28125 L 13.8125 -35.453125 L 24.1875 -35.453125 L 24.1875 -26.828125 L 13.8125 -26.828125 L 13.8125 1.6875 L 4.375 1.6875 L 4.375 -26.828125 L -1.015625 -26.828125 L -1.015625 -35.453125 L 4.375 -35.453125 L 4.375 -37.875 C 4.375 -40.03125 4.710938 -42.003906 5.390625 -43.796875 C 6.015625 -45.554688 6.9375 -47.085938 8.15625 -48.390625 C 9.320312 -49.691406 10.78125 -50.679688 12.53125 -51.359375 C 14.195312 -52.023438 16.019531 -52.359375 18 -52.359375 C 18.488281 -52.359375 18.96875 -52.347656 19.4375 -52.328125 C 19.914062 -52.304688 20.378906 -52.257812 20.828125 -52.1875 C 21.273438 -52.125 21.710938 -52.046875 22.140625 -51.953125 C 22.566406 -51.867188 22.984375 -51.757812 23.390625 -51.625 C 24.828125 -51.175781 26.21875 -50.613281 27.5625 -49.9375 L 28.90625 -49.265625 L 28.4375 -47.921875 L 26.625 -42.796875 L 25.953125 -40.90625 Z M 24.1875 -41.84375 "/></g></g></g><g fill="#3d3d3d" fill-opacity="1"><g transform="translate(600.588, 770.743497)"><g><path d="M 29.71875 -17.515625 C 29.71875 -19.085938 29.472656 -20.570312 28.984375 -21.96875 C 28.484375 -23.3125 27.804688 -24.503906 26.953125 -25.546875 C 26.640625 -25.859375 26.328125 -26.160156 26.015625 -26.453125 C 25.703125 -26.742188 25.363281 -27.007812 25 -27.25 C 24.644531 -27.5 24.265625 -27.71875 23.859375 -27.90625 C 23.316406 -28.21875 22.726562 -28.441406 22.09375 -28.578125 C 21.46875 -28.710938 20.820312 -28.78125 20.15625 -28.78125 C 17.144531 -28.78125 14.804688 -27.8125 13.140625 -25.875 C 11.429688 -23.851562 10.578125 -21.113281 10.578125 -17.65625 C 10.578125 -16.082031 10.828125 -14.597656 11.328125 -13.203125 C 11.410156 -12.984375 11.492188 -12.757812 11.578125 -12.53125 C 11.671875 -12.3125 11.773438 -12.085938 11.890625 -11.859375 C 12.003906 -11.640625 12.117188 -11.425781 12.234375 -11.21875 C 12.347656 -11.019531 12.457031 -10.828125 12.5625 -10.640625 C 12.675781 -10.460938 12.800781 -10.269531 12.9375 -10.0625 C 13.070312 -9.863281 13.226562 -9.695312 13.40625 -9.5625 C 13.675781 -9.207031 13.96875 -8.882812 14.28125 -8.59375 C 14.601562 -8.300781 14.941406 -8.03125 15.296875 -7.78125 C 15.660156 -7.53125 16.039062 -7.316406 16.4375 -7.140625 C 16.976562 -6.828125 17.5625 -6.601562 18.1875 -6.46875 C 18.820312 -6.332031 19.476562 -6.265625 20.15625 -6.265625 C 21.675781 -6.265625 23.019531 -6.535156 24.1875 -7.078125 C 24.769531 -7.347656 25.296875 -7.660156 25.765625 -8.015625 C 26.242188 -8.378906 26.6875 -8.804688 27.09375 -9.296875 C 27.945312 -10.242188 28.597656 -11.410156 29.046875 -12.796875 C 29.492188 -14.191406 29.71875 -15.765625 29.71875 -17.515625 Z M 1.015625 -17.515625 C 1.015625 -20.578125 1.507812 -23.34375 2.5 -25.8125 C 3.476562 -28.28125 4.820312 -30.378906 6.53125 -32.109375 C 8.238281 -33.835938 10.265625 -35.175781 12.609375 -36.125 C 14.941406 -37.0625 17.457031 -37.53125 20.15625 -37.53125 C 20.820312 -37.53125 21.46875 -37.492188 22.09375 -37.421875 C 22.726562 -37.359375 23.359375 -37.269531 23.984375 -37.15625 C 24.617188 -37.050781 25.238281 -36.90625 25.84375 -36.71875 C 26.445312 -36.539062 27.039062 -36.34375 27.625 -36.125 C 28.789062 -35.675781 29.878906 -35.113281 30.890625 -34.4375 C 31.910156 -33.757812 32.867188 -32.992188 33.765625 -32.140625 C 35.472656 -30.390625 36.820312 -28.28125 37.8125 -25.8125 C 38.789062 -23.382812 39.28125 -20.664062 39.28125 -17.65625 C 39.28125 -14.644531 38.8125 -11.90625 37.875 -9.4375 C 36.882812 -6.96875 35.535156 -4.851562 33.828125 -3.09375 C 32.972656 -2.195312 32.03125 -1.398438 31 -0.703125 C 29.96875 -0.00390625 28.867188 0.585938 27.703125 1.078125 C 25.359375 2.023438 22.84375 2.5 20.15625 2.5 C 18.800781 2.5 17.484375 2.375 16.203125 2.125 C 14.921875 1.875 13.695312 1.503906 12.53125 1.015625 C 10.195312 0.0234375 8.175781 -1.351562 6.46875 -3.125 C 4.757812 -4.90625 3.410156 -7.03125 2.421875 -9.5 C 1.484375 -11.925781 1.015625 -14.597656 1.015625 -17.515625 Z M 1.015625 -17.515625 "/></g></g></g><g fill="#3d3d3d" fill-opacity="1"><g transform="translate(640.889117, 770.743497)"><g><path d="M 36.734375 2.015625 C 35.515625 2.015625 34.398438 1.890625 33.390625 1.640625 C 32.378906 1.398438 31.46875 1.007812 30.65625 0.46875 C 29.757812 -0.15625 29.019531 -0.914062 28.4375 -1.8125 C 27.175781 -0.78125 25.804688 0.09375 24.328125 0.8125 C 22.035156 1.9375 19.539062 2.5 16.84375 2.5 C 15.132812 2.5 13.492188 2.226562 11.921875 1.6875 C 10.265625 1.144531 8.796875 0.269531 7.515625 -0.9375 C 6.234375 -2.15625 5.210938 -3.707031 4.453125 -5.59375 C 3.734375 -7.4375 3.375 -9.660156 3.375 -12.265625 L 3.375 -36.734375 L 12.796875 -36.734375 L 12.796875 -13.078125 C 12.796875 -10.734375 13.25 -8.976562 14.15625 -7.8125 C 14.957031 -6.78125 16.238281 -6.265625 18 -6.265625 C 19.65625 -6.265625 21.222656 -6.578125 22.703125 -7.203125 C 23.335938 -7.523438 23.96875 -7.875 24.59375 -8.25 C 25.226562 -8.632812 25.789062 -9.03125 26.28125 -9.4375 L 26.28125 -36.734375 L 35.71875 -36.734375 L 35.71875 -9.09375 C 35.71875 -8.289062 35.785156 -7.6875 35.921875 -7.28125 C 36.054688 -6.914062 36.210938 -6.664062 36.390625 -6.53125 C 36.566406 -6.351562 36.769531 -6.242188 37 -6.203125 C 37.3125 -6.109375 37.648438 -6.0625 38.015625 -6.0625 L 40.234375 -6.0625 L 39.625 -3.90625 L 38.34375 0.8125 L 38.015625 2.015625 Z M 36.734375 2.015625 "/></g></g></g><g fill="#3d3d3d" fill-opacity="1"><g transform="translate(681.594578, 770.743497)"><g><path d="M 12.9375 -33.625 C 13.300781 -33.988281 13.660156 -34.300781 14.015625 -34.5625 C 14.378906 -34.832031 14.757812 -35.082031 15.15625 -35.3125 C 17.40625 -36.789062 20.035156 -37.53125 23.046875 -37.53125 C 25.242188 -37.53125 27.195312 -37.179688 28.90625 -36.484375 C 30.613281 -35.796875 32.050781 -34.753906 33.21875 -33.359375 C 35.425781 -30.660156 36.53125 -27.15625 36.53125 -22.84375 L 36.53125 1.6875 L 27.09375 1.6875 L 27.09375 -22.171875 C 27.09375 -22.929688 27.035156 -23.625 26.921875 -24.25 C 26.804688 -24.882812 26.644531 -25.445312 26.4375 -25.9375 C 26.238281 -26.4375 25.984375 -26.863281 25.671875 -27.21875 C 25.398438 -27.582031 25.097656 -27.882812 24.765625 -28.125 C 24.429688 -28.375 24.035156 -28.554688 23.578125 -28.671875 C 23.128906 -28.785156 22.613281 -28.84375 22.03125 -28.84375 C 21.226562 -28.84375 20.421875 -28.6875 19.609375 -28.375 C 18.753906 -28.0625 17.925781 -27.613281 17.125 -27.03125 C 16.3125 -26.394531 15.546875 -25.695312 14.828125 -24.9375 C 14.554688 -24.570312 14.265625 -24.195312 13.953125 -23.8125 C 13.640625 -23.4375 13.367188 -23.066406 13.140625 -22.703125 L 13.140625 1.6875 L 3.703125 1.6875 L 3.703125 -36.734375 L 12.9375 -36.734375 Z M 12.9375 -33.625 "/></g></g></g><g fill="#3d3d3d" fill-opacity="1"><g transform="translate(721.491351, 770.743497)"><g><path d="M 18.671875 2.5 C 17.453125 2.5 16.28125 2.375 15.15625 2.125 C 14.039062 1.875 12.941406 1.523438 11.859375 1.078125 C 9.742188 0.128906 7.898438 -1.21875 6.328125 -2.96875 C 4.753906 -4.71875 3.546875 -6.804688 2.703125 -9.234375 C 1.796875 -11.660156 1.34375 -14.351562 1.34375 -17.3125 C 1.34375 -20.144531 1.789062 -22.796875 2.6875 -25.265625 C 3.59375 -27.742188 4.832031 -29.878906 6.40625 -31.671875 C 7.925781 -33.472656 9.742188 -34.890625 11.859375 -35.921875 C 12.890625 -36.460938 13.976562 -36.863281 15.125 -37.125 C 16.269531 -37.394531 17.425781 -37.53125 18.59375 -37.53125 C 19.445312 -37.53125 20.265625 -37.472656 21.046875 -37.359375 C 21.835938 -37.253906 22.601562 -37.078125 23.34375 -36.828125 C 24.09375 -36.578125 24.800781 -36.273438 25.46875 -35.921875 C 25.695312 -35.785156 25.929688 -35.640625 26.171875 -35.484375 C 26.421875 -35.328125 26.660156 -35.179688 26.890625 -35.046875 L 26.890625 -51.546875 L 36.328125 -51.546875 L 36.328125 -8.484375 C 36.328125 -7.410156 36.484375 -6.785156 36.796875 -6.609375 C 37.335938 -6.242188 37.941406 -6.0625 38.609375 -6.0625 L 40.84375 -6.0625 L 40.234375 -3.90625 L 38.953125 0.8125 L 38.609375 2.015625 L 37.328125 2.015625 C 33.515625 2.015625 30.753906 0.78125 29.046875 -1.6875 C 28.234375 -0.925781 27.3125 -0.207031 26.28125 0.46875 C 24.21875 1.820312 21.679688 2.5 18.671875 2.5 Z M 20.015625 -6.265625 C 21.410156 -6.265625 22.734375 -6.601562 23.984375 -7.28125 C 25.109375 -7.863281 26.078125 -8.582031 26.890625 -9.4375 L 26.890625 -25.609375 C 26.523438 -26.015625 26.117188 -26.382812 25.671875 -26.71875 C 25.222656 -27.050781 24.707031 -27.398438 24.125 -27.765625 C 22.914062 -28.523438 21.523438 -28.90625 19.953125 -28.90625 C 19.273438 -28.90625 18.632812 -28.835938 18.03125 -28.703125 C 17.425781 -28.566406 16.851562 -28.367188 16.3125 -28.109375 C 15.726562 -27.785156 15.195312 -27.429688 14.71875 -27.046875 C 14.25 -26.671875 13.8125 -26.238281 13.40625 -25.75 C 12.601562 -24.757812 12 -23.566406 11.59375 -22.171875 C 11.457031 -21.722656 11.332031 -21.238281 11.21875 -20.71875 C 11.101562 -20.207031 11.023438 -19.691406 10.984375 -19.171875 C 10.941406 -18.648438 10.921875 -18.097656 10.921875 -17.515625 C 10.921875 -15.804688 11.164062 -14.257812 11.65625 -12.875 C 12.101562 -11.519531 12.753906 -10.351562 13.609375 -9.375 C 13.785156 -9.101562 13.988281 -8.863281 14.21875 -8.65625 C 14.445312 -8.457031 14.679688 -8.253906 14.921875 -8.046875 C 15.171875 -7.847656 15.414062 -7.671875 15.65625 -7.515625 C 15.90625 -7.359375 16.191406 -7.210938 16.515625 -7.078125 C 16.691406 -6.984375 16.890625 -6.890625 17.109375 -6.796875 C 17.335938 -6.710938 17.578125 -6.632812 17.828125 -6.5625 C 18.078125 -6.5 18.3125 -6.441406 18.53125 -6.390625 C 18.757812 -6.347656 18.992188 -6.316406 19.234375 -6.296875 C 19.484375 -6.273438 19.742188 -6.265625 20.015625 -6.265625 Z M 20.015625 -6.265625 "/></g></g></g><path fill="#ffffff" d="M 416.898438 536.449219 C 410.269531 536.449219 403.539062 534.972656 399.332031 532.605469 C 387.28125 525.8125 382.351562 513.085938 386.15625 498.5625 C 390.085938 483.539062 403.953125 467.574219 421.917969 467.574219 C 422.773438 467.574219 423.636719 467.613281 424.492188 467.6875 C 432.152344 468.347656 439.953125 472.824219 445.351562 479.664062 C 450.179688 485.773438 452.351562 492.800781 451.5 499.503906 L 428.507812 534.574219 C 425.449219 535.785156 421.359375 536.449219 416.898438 536.449219 " fill-opacity="1" fill-rule="nonzero"/><g clip-path="url(#id3)"><path fill="#3d3d3d" d="M 421.917969 465.511719 C 389.097656 465.511719 366.148438 516.273438 398.320312 534.402344 C 403.027344 537.054688 410.113281 538.507812 416.898438 538.507812 C 421.691406 538.507812 426.335938 537.78125 429.882812 536.238281 L 453.472656 500.246094 C 455.945312 483.488281 440.582031 467.007812 424.667969 465.632812 C 423.746094 465.550781 422.828125 465.511719 421.917969 465.511719 Z M 421.917969 469.636719 C 422.714844 469.636719 423.519531 469.671875 424.316406 469.742188 C 431.421875 470.355469 438.683594 474.542969 443.738281 480.941406 C 448.105469 486.46875 450.132812 492.773438 449.507812 498.78125 L 427.152344 532.878906 C 424.40625 533.855469 420.820312 534.386719 416.898438 534.386719 C 410.601562 534.386719 404.257812 533.011719 400.339844 530.808594 C 394.4375 527.480469 390.425781 522.824219 388.410156 516.972656 C 386.574219 511.632812 386.480469 505.449219 388.148438 499.085938 C 391.882812 484.808594 404.988281 469.636719 421.917969 469.636719 " fill-opacity="1" fill-rule="nonzero"/></g><path fill="#ffffff" d="M 575.542969 536.449219 C 571.082031 536.449219 566.988281 535.785156 563.933594 534.574219 L 540.941406 499.503906 C 540.089844 492.800781 542.261719 485.773438 547.085938 479.664062 C 552.484375 472.824219 560.285156 468.347656 567.949219 467.6875 C 568.800781 467.613281 569.667969 467.574219 570.523438 467.574219 C 588.484375 467.574219 602.355469 483.539062 606.289062 498.5625 C 610.085938 513.085938 605.160156 525.8125 593.109375 532.605469 C 588.902344 534.972656 582.171875 536.449219 575.542969 536.449219 " fill-opacity="1" fill-rule="nonzero"/><g clip-path="url(#id4)"><path fill="#3d3d3d" d="M 570.523438 465.511719 C 569.613281 465.511719 568.695312 465.550781 567.769531 465.632812 C 551.859375 467.007812 536.496094 483.488281 538.964844 500.246094 L 562.558594 536.238281 C 566.105469 537.78125 570.746094 538.507812 575.542969 538.507812 C 582.324219 538.507812 589.414062 537.054688 594.121094 534.402344 C 626.292969 516.273438 603.339844 465.511719 570.523438 465.511719 Z M 570.523438 469.636719 C 587.453125 469.636719 600.558594 484.8125 604.292969 499.085938 C 605.957031 505.449219 605.867188 511.636719 604.03125 516.972656 C 602.015625 522.824219 598 527.480469 592.097656 530.808594 C 588.183594 533.011719 581.839844 534.386719 575.542969 534.386719 C 571.621094 534.386719 568.035156 533.855469 565.285156 532.878906 L 542.929688 498.78125 C 542.308594 492.773438 544.335938 486.46875 548.703125 480.941406 C 553.757812 474.542969 561.019531 470.355469 568.125 469.742188 C 568.921875 469.671875 569.726562 469.636719 570.523438 469.636719 " fill-opacity="1" fill-rule="nonzero"/></g><path fill="#ffffff" d="M 567.550781 523.898438 C 567.132812 523.898438 566.730469 523.878906 566.355469 523.835938 L 550.207031 508.820312 C 549.078125 505.707031 549.328125 502.09375 550.921875 498.585938 C 552.761719 494.546875 556.058594 491.390625 559.734375 490.140625 C 561.316406 489.601562 562.96875 489.332031 564.652344 489.332031 C 572.378906 489.332031 580.546875 495.25 583.652344 503.097656 C 585.050781 506.636719 586.472656 513.441406 580.289062 519.257812 C 577.566406 521.816406 571.855469 523.898438 567.550781 523.898438 " fill-opacity="1" fill-rule="nonzero"/><path fill="#3d3d3d" d="M 564.652344 487.265625 C 562.792969 487.265625 560.917969 487.554688 559.074219 488.1875 C 550.929688 490.957031 545.011719 501.558594 548.457031 510.007812 L 565.425781 525.792969 C 566.09375 525.902344 566.804688 525.957031 567.550781 525.957031 C 572.378906 525.957031 578.566406 523.707031 581.699219 520.761719 C 595.03125 508.222656 580.4375 487.265625 564.652344 487.265625 Z M 564.652344 487.265625 L 564.652344 491.394531 C 571.585938 491.394531 578.929688 496.75 581.734375 503.855469 C 582.945312 506.90625 584.175781 512.773438 578.878906 517.753906 C 576.527344 519.964844 571.34375 521.835938 567.550781 521.835938 C 567.441406 521.835938 567.328125 521.832031 567.21875 521.828125 L 551.992188 507.667969 C 551.230469 505.167969 551.503906 502.28125 552.796875 499.441406 C 554.378906 495.964844 557.292969 493.148438 560.398438 492.089844 C 561.761719 491.628906 563.191406 491.394531 564.652344 491.394531 L 564.652344 487.265625 " fill-opacity="1" fill-rule="nonzero"/><path fill="#ffffff" d="M 420.574219 523.898438 C 416.269531 523.898438 410.554688 521.816406 407.832031 519.257812 C 401.652344 513.441406 403.074219 506.636719 404.476562 503.097656 C 407.578125 495.25 415.746094 489.332031 423.476562 489.332031 C 425.160156 489.332031 426.8125 489.601562 428.390625 490.140625 C 432.070312 491.390625 435.363281 494.550781 437.203125 498.585938 C 438.800781 502.09375 439.050781 505.707031 437.917969 508.820312 L 421.773438 523.835938 C 421.394531 523.878906 420.992188 523.898438 420.574219 523.898438 " fill-opacity="1" fill-rule="nonzero"/><path fill="#3d3d3d" d="M 423.476562 487.265625 C 407.691406 487.265625 393.09375 508.222656 406.425781 520.761719 C 409.558594 523.707031 415.746094 525.957031 420.574219 525.957031 C 421.320312 525.957031 422.035156 525.902344 422.699219 525.792969 L 439.667969 510.007812 C 443.117188 501.558594 437.199219 490.957031 429.054688 488.1875 C 427.207031 487.554688 425.332031 487.265625 423.476562 487.265625 Z M 423.476562 491.394531 C 424.933594 491.394531 426.363281 491.625 427.726562 492.089844 C 430.832031 493.148438 433.746094 495.964844 435.328125 499.441406 C 436.621094 502.28125 436.898438 505.167969 436.132812 507.667969 L 420.90625 521.828125 C 420.796875 521.832031 420.683594 521.835938 420.574219 521.835938 C 416.785156 521.835938 411.597656 519.964844 409.246094 517.753906 C 403.949219 512.773438 405.183594 506.910156 406.390625 503.855469 C 409.199219 496.75 416.542969 491.394531 423.476562 491.394531 " fill-opacity="1" fill-rule="nonzero"/><path fill="#ffffff" d="M 496.554688 620.785156 C 450.355469 620.785156 412.769531 590.621094 412.769531 553.546875 C 412.769531 516.472656 450.355469 486.308594 496.554688 486.308594 C 542.757812 486.308594 580.347656 516.472656 580.347656 553.546875 C 580.347656 590.621094 542.757812 620.785156 496.554688 620.785156 " fill-opacity="1" fill-rule="nonzero"/><g clip-path="url(#id5)"><path fill="#3d3d3d" d="M 496.554688 484.367188 C 449.210938 484.367188 410.828125 515.34375 410.828125 553.546875 C 410.828125 591.753906 449.210938 622.722656 496.554688 622.722656 C 543.902344 622.722656 582.28125 591.753906 582.28125 553.546875 C 582.28125 515.34375 543.902344 484.367188 496.554688 484.367188 Z M 496.554688 488.25 C 541.691406 488.25 578.410156 517.539062 578.410156 553.546875 C 578.410156 589.550781 541.691406 618.84375 496.554688 618.84375 C 451.421875 618.84375 414.703125 589.550781 414.703125 553.546875 C 414.703125 517.539062 451.421875 488.25 496.554688 488.25 " fill-opacity="1" fill-rule="nonzero"/></g><path fill="#ffffff" d="M 441.746094 604.132812 C 424.097656 591.828125 413.75 574.386719 413.019531 555.679688 C 420.585938 555.757812 430.890625 558.136719 437.867188 568.753906 C 442.878906 576.375 444.882812 584.929688 443.835938 594.183594 C 443.402344 597.980469 442.703125 601.316406 441.746094 604.132812 " fill-opacity="1" fill-rule="nonzero"/><path fill="#3d3d3d" d="M 412.613281 553.527344 C 412.019531 553.527344 411.425781 553.542969 410.828125 553.566406 C 410.839844 575.324219 423.304688 594.734375 442.773438 607.414062 C 444.625 603.234375 445.511719 598.417969 445.964844 594.425781 C 447.054688 584.832031 444.996094 575.691406 439.660156 567.574219 C 433.03125 557.488281 423.132812 553.527344 412.613281 553.527344 Z M 415.304688 557.921875 C 424.289062 558.582031 431.265625 562.613281 436.078125 569.933594 C 440.800781 577.125 442.695312 585.199219 441.703125 593.9375 C 441.425781 596.375 441.039062 598.601562 440.542969 600.601562 C 425.644531 589.359375 416.675781 574.195312 415.304688 557.921875 " fill-opacity="1" fill-rule="nonzero"/><path fill="#ffffff" d="M 551.363281 604.132812 C 550.410156 601.3125 549.710938 597.980469 549.28125 594.183594 C 548.230469 584.929688 550.238281 576.371094 555.242188 568.753906 C 562.21875 558.136719 572.527344 555.757812 580.097656 555.679688 C 579.363281 574.386719 569.019531 591.828125 551.363281 604.132812 " fill-opacity="1" fill-rule="nonzero"/><path fill="#3d3d3d" d="M 580.5 553.527344 C 569.980469 553.527344 560.078125 557.488281 553.449219 567.574219 C 548.117188 575.691406 546.058594 584.832031 547.148438 594.425781 C 547.597656 598.417969 548.488281 603.234375 550.339844 607.414062 C 569.8125 594.734375 582.273438 575.324219 582.28125 553.566406 C 581.683594 553.542969 581.089844 553.527344 580.5 553.527344 Z M 577.808594 557.921875 C 576.441406 574.195312 567.46875 589.359375 552.570312 600.605469 C 552.074219 598.597656 551.6875 596.375 551.410156 593.9375 C 550.417969 585.199219 552.3125 577.125 557.035156 569.933594 C 561.847656 562.613281 568.824219 558.582031 577.808594 557.921875 " fill-opacity="1" fill-rule="nonzero"/><path fill="#3d3d3d" d="M 476.082031 537.136719 C 473.164062 553.328125 447.765625 553.0625 444.617188 537.136719 C 444.054688 534.308594 439.75 535.507812 440.304688 538.328125 C 444.289062 558.496094 476.703125 558.820312 480.390625 538.328125 C 480.898438 535.503906 476.589844 534.300781 476.082031 537.136719 " fill-opacity="1" fill-rule="nonzero"/><path fill="#3d3d3d" d="M 548.160156 537.136719 C 545.246094 553.328125 519.84375 553.0625 516.699219 537.136719 C 516.140625 534.308594 511.828125 535.507812 512.386719 538.328125 C 516.371094 558.496094 548.785156 558.820312 552.472656 538.328125 C 552.980469 535.503906 548.671875 534.300781 548.160156 537.136719 " fill-opacity="1" fill-rule="nonzero"/><path fill="#ffffff" d="M 498.378906 568.28125 C 496.289062 568.28125 494.433594 566.519531 492.941406 565.101562 C 492.652344 564.828125 492.386719 564.570312 492.144531 564.363281 C 490.148438 562.625 488.550781 560.753906 487.265625 558.65625 C 486.242188 556.984375 485.957031 554.972656 486.488281 553.136719 C 487.003906 551.34375 488.253906 549.839844 489.925781 549.007812 C 491.175781 548.390625 493.042969 547.910156 495.191406 547.65625 C 496.273438 547.53125 497.378906 547.46875 498.480469 547.46875 C 501.015625 547.46875 507.15625 547.859375 509.394531 551.492188 C 510.167969 552.75 510.761719 554.910156 509.183594 558.046875 C 508.128906 560.148438 506.578125 562.140625 504.296875 564.3125 C 504.078125 564.523438 503.835938 564.777344 503.574219 565.050781 C 502.210938 566.480469 500.507812 568.253906 498.421875 568.28125 L 498.378906 568.28125 " fill-opacity="1" fill-rule="nonzero"/><path fill="#3d3d3d" d="M 498.480469 545.976562 C 497.320312 545.976562 496.15625 546.039062 495.019531 546.175781 C 493.378906 546.367188 491.054688 546.78125 489.261719 547.671875 C 487.21875 548.6875 485.6875 550.527344 485.054688 552.722656 C 484.414062 554.960938 484.753906 557.410156 485.996094 559.433594 C 487.363281 561.664062 489.054688 563.644531 491.167969 565.488281 C 491.375 565.667969 491.636719 565.921875 491.914062 566.183594 C 493.507812 567.699219 495.695312 569.773438 498.378906 569.773438 L 498.4375 569.773438 C 501.148438 569.738281 503.175781 567.625 504.652344 566.082031 C 504.902344 565.820312 505.140625 565.574219 505.328125 565.394531 C 507.734375 563.097656 509.382812 560.976562 510.515625 558.714844 C 512.402344 554.964844 511.636719 552.289062 510.660156 550.707031 C 508.125 546.589844 501.941406 545.976562 498.480469 545.976562 Z M 498.480469 548.957031 C 504.609375 548.957031 511.019531 551.074219 507.851562 557.375 C 506.726562 559.621094 505.078125 561.507812 503.269531 563.234375 C 502.054688 564.390625 500.210938 566.765625 498.40625 566.789062 L 498.378906 566.789062 C 496.523438 566.789062 494.429688 564.378906 493.121094 563.238281 C 491.3125 561.660156 489.789062 559.921875 488.535156 557.875 C 486.863281 555.148438 487.839844 551.710938 490.585938 550.347656 C 491.695312 549.796875 493.417969 549.367188 495.363281 549.136719 C 496.359375 549.023438 497.414062 548.957031 498.480469 548.957031 " fill-opacity="1" fill-rule="nonzero"/><path fill="#3d3d3d" d="M 476.84375 569.476562 C 475.933594 576.878906 481.335938 582.199219 488.527344 582.496094 C 495.984375 582.800781 501.242188 576.691406 500.75 569.476562 C 500.558594 566.722656 496.253906 566.703125 496.445312 569.476562 C 497.234375 580.933594 479.761719 580.785156 481.148438 569.476562 C 481.488281 566.722656 477.179688 566.757812 476.84375 569.476562 " fill-opacity="1" fill-rule="nonzero"/><path fill="#3d3d3d" d="M 496.652344 569.476562 C 495.742188 576.878906 501.140625 582.199219 508.335938 582.496094 C 515.789062 582.800781 521.046875 576.691406 520.550781 569.476562 C 520.363281 566.722656 516.058594 566.703125 516.25 569.476562 C 517.035156 580.933594 499.566406 580.78125 500.953125 569.476562 C 501.292969 566.722656 496.984375 566.757812 496.652344 569.476562 " fill-opacity="1" fill-rule="nonzero"/><g clip-path="url(#id6)"><path fill="#3d3d3d" d="M 635.484375 451.945312 C 635.246094 451.945312 635.007812 451.886719 634.785156 451.769531 L 618.296875 443.117188 L 601.808594 451.769531 C 601.304688 452.039062 600.6875 451.992188 600.226562 451.65625 C 599.761719 451.320312 599.53125 450.75 599.625 450.1875 L 602.777344 431.859375 L 589.4375 418.882812 C 589.027344 418.484375 588.878906 417.886719 589.054688 417.34375 C 589.230469 416.796875 589.703125 416.402344 590.269531 416.320312 L 608.703125 413.644531 L 616.949219 396.972656 C 617.203125 396.460938 617.726562 396.132812 618.296875 396.132812 C 618.871094 396.132812 619.394531 396.460938 619.648438 396.972656 L 627.890625 413.644531 L 646.324219 416.320312 C 646.890625 416.402344 647.363281 416.796875 647.539062 417.34375 C 647.71875 417.886719 647.570312 418.484375 647.160156 418.882812 L 633.820312 431.859375 L 636.96875 450.1875 C 637.066406 450.75 636.832031 451.320312 636.371094 451.65625 C 636.109375 451.847656 635.796875 451.945312 635.484375 451.945312 Z M 618.296875 439.917969 C 618.539062 439.917969 618.777344 439.976562 618.996094 440.09375 L 633.488281 447.695312 L 630.71875 431.589844 C 630.636719 431.101562 630.800781 430.605469 631.152344 430.261719 L 642.875 418.855469 L 626.675781 416.503906 C 626.183594 416.433594 625.761719 416.125 625.542969 415.683594 L 618.296875 401.03125 L 611.054688 415.683594 C 610.832031 416.125 610.410156 416.433594 609.921875 416.503906 L 593.71875 418.855469 L 605.441406 430.261719 C 605.796875 430.605469 605.957031 431.101562 605.875 431.589844 L 603.109375 447.695312 L 617.597656 440.09375 C 617.816406 439.976562 618.058594 439.917969 618.296875 439.917969 Z M 618.296875 439.917969 " fill-opacity="1" fill-rule="nonzero"/></g></svg>